{"title":"The Amazing Spiderman 2 2014 720p TS x264 Pimp4003","uid":10132103,"size":2265551959,"categoryP":"video","categoryS":"hd___movies","magnet":"?xt=urn:btih:c4731c6a64c5756d7d240e5f1e71af8f6f0c0e1d&amp;dn=The+Amazing+Spiderman+2+2014+720p+TS+x264+Pimp4003&amp;tr=udp%3A%2F%2Ftracker.openbittorrent.com%3A80&amp;tr=udp%3A%2F%2Fopen.demonii.com%3A1337&amp;tr=udp%3A%2F%2Ftracker.coppersurfer.tk%3A6969&amp;tr=udp%3A%2F%2Fexodus.desync.com%3A6969","seeders":20,"leechers":0,"uploader":"shawnmurthy","files":-1,"time":1399892282,"description":"SOURCE: SpEcTre\n &lt;a href=&quot;\nhttp://pimp4003.net/torrents.php?id=c4731c6a64c5756d7d240e5f1e71af8f6f0c0e1d&quot; rel=&quot;nofollow&quot; target=&quot;_NEW&quot;&gt;\nhttp://pimp4003.net/torrents.php?id=c4731c6a64c5756d7d240e5f1e71af8f6f0c0e1d&lt;/a&gt;\n\nThe Amazing Spiderman 2 2014 720p TS x264 Pimp4003\n &lt;a href=&quot;\nhttp://www.imdb.com/title/tt1872181/&quot; rel=&quot;nofollow&quot; target=&quot;_NEW&quot;&gt;\nhttp://www.imdb.com/title/tt1872181/&lt;/a&gt;\n\nPeter Parker runs the gauntlet as the mysterious company Oscorp sends up a slew of supervillains against him, impacting on his life.\n\nDirector: Marc Webb\nWriters: Alex Kurtzman (screenplay), Roberto Orci (screenplay), 7 more credits Â»\nStars: Andrew Garfield, Emma Stone, Jamie Foxx | See full cast and crew Â»\n\nVideo\nID                                       : 2\nFormat                                   : AVC\nFormat/Info                              : Advanced Video Codec\nFormat profile                           : &lt;a class=&quot;__cf_email__&quot; href=&quot;/cdn-cgi/l/email-protection&quot; data-cfemail=&quot;90d2f1e3f5fcf9fef5d0dca3bea0&quot;&gt;[email&amp;#160;protected]&lt;/a&gt;&lt;script cf-hash='f9e31' type=&quot;text/javascript&quot;&gt;\n/* &lt;![CDATA[ */!function(){try{var t=&quot;currentScript&quot;in document?document.currentScript:function(){for(var t=document.getElementsByTagName(&quot;script&quot;),e=t.length;e--;)if(t[e].getAttribute(&quot;cf-hash&quot;))return t[e]}();if(t&amp;&amp;t.previousSibling){var e,r,n,i,c=t.previousSibling,a=c.getAttribute(&quot;data-cfemail&quot;);if(a){for(e=&quot;&quot;,r=parseInt(a.substr(0,2),16),n=2;a.length-n;n+=2)i=parseInt(a.substr(n,2),16)^r,e+=String.fromCharCode(i);e=document.createTextNode(e),c.parentNode.replaceChild(e,c)}}}catch(u){}}();/* ]]&gt; */&lt;/script&gt;\nFormat settings, CABAC                   : No\nFormat settings, ReFrames                : 1 frame\nFormat settings, GOP                     : M=1, N=25\nMuxing mode                              : Container profile=&lt;a class=&quot;__cf_email__&quot; href=&quot;/cdn-cgi/l/email-protection&quot; data-cfemail=&quot;89cbe8faece5e0e7ecc9bda7b8&quot;&gt;[email&amp;#160;protected]&lt;/a&gt;&lt;script cf-hash='f9e31' type=&quot;text/javascript&quot;&gt;\n/* &lt;![CDATA[ */!function(){try{var t=&quot;currentScript&quot;in document?document.currentScript:function(){for(var t=document.getElementsByTagName(&quot;script&quot;),e=t.length;e--;)if(t[e].getAttribute(&quot;cf-hash&quot;))return t[e]}();if(t&amp;&amp;t.previousSibling){var e,r,n,i,c=t.previousSibling,a=c.getAttribute(&quot;data-cfemail&quot;);if(a){for(e=&quot;&quot;,r=parseInt(a.substr(0,2),16),n=2;a.length-n;n+=2)i=parseInt(a.substr(n,2),16)^r,e+=String.fromCharCode(i);e=document.createTextNode(e),c.parentNode.replaceChild(e,c)}}}catch(u){}}();/* ]]&gt; */&lt;/script&gt;\nCodec ID                                 : avc1\nCodec ID/Info                            : Advanced Video Coding\nDuration                                 : 2h 17mn\nBit rate                                 : 2 069 Kbps\nWidth                                    : 1 280 pixels\nHeight                                   : 720 pixels\nDisplay aspect ratio                     : 16:9\nFrame rate mode                          : Constant\nFrame rate                               : 29.970 fps\nOriginal frame rate                      : 29.000 fps\nColor space                              : YUV\nChroma subsampling                       : 4:2:0\nBit depth                                : 8 bits\nScan type                                : Progressive\nBits/(Pixel*Frame)                       : 0.075\nStream size                              : 1.98 GiB (94%)\nWriting library                          : Ã„\nLanguage                                 : English\n\nAudio\nID                                       : 1\nFormat                                   : AAC\nFormat/Info                              : Advanced Audio Codec\nFormat profile                           : LC\nCodec ID                                 : 40\nDuration                                 : 2h 17mn\nBit rate mode                            : Constant\nBit rate                                 : 128 Kbps\nChannel(s)                               : 2 channels\nChannel positions                        : Front: L R\nSampling rate                            : 48.0 KHz\nCompression mode                         : Lossy\nStream size                              : 125 MiB (6%)\nLanguage                                 : English\n\n","torrent":{"xt":"urn:btih:c4731c6a64c5756d7d240e5f1e71af8f6f0c0e1d","amp;dn":"The+Amazing+Spiderman+2+2014+720p+TS+x264+Pimp4003","amp;tr":["udp%3A%2F%2Ftracker.openbittorrent.com%3A80","udp%3A%2F%2Fopen.demonii.com%3A1337","udp%3A%2F%2Ftracker.coppersurfer.tk%3A6969","udp%3A%2F%2Fexodus.desync.com%3A6969"],"infoHash":"c4731c6a64c5756d7d240e5f1e71af8f6f0c0e1d","infoHashBuffer":{"type":"Buffer","data":[196,115,28,106,100,197,117,109,125,36,14,95,30,113,175,143,111,12,14,29]},"announce":[],"urlList":[]}}